<svg width="181" height="15" viewBox="0 0 181 15" fill="none" xmlns="http://www.w3.org/2000/svg">
<path d="M0.300049 14V1.23998H3.40005V14H0.300049ZM19.8231 14.14L14.8631 8.69998C14.4631 8.25998 14.0498 7.79331 13.6231 7.29998C13.2098 6.79331 12.8298 6.32665 12.4831 5.89998L12.4431 5.91998C12.4698 6.37331 12.4831 6.83331 12.4831 7.29998C12.4965 7.76665 12.5031 8.19998 12.5031 8.59998V14H9.40318V1.23998H11.9031L16.2231 5.99998C16.5299 6.33331 16.8765 6.73331 17.2631 7.19998C17.6631 7.65331 18.0098 8.06665 18.3032 8.43998L18.3431 8.41998C18.3031 7.65998 18.2831 6.86665 18.2831 6.03998V1.23998H21.3832V14.14H19.8231ZM33.2229 14.08H30.6828L26.0229 1.23998H29.2029L31.2029 6.85998C31.3496 7.28665 31.4961 7.74665 31.6428 8.23998C31.7895 8.73331 31.9228 9.21998 32.0429 9.69998H32.0829C32.2029 9.21998 32.3361 8.73331 32.4828 8.23998C32.6296 7.74665 32.7761 7.28665 32.9228 6.85998L34.9228 1.23998H37.8629L33.2229 14.08ZM42.5993 14V1.23998H50.0392V3.77998H45.6992V6.31998H49.2393V8.89998H45.6992V11.46H50.5993V14H42.5993ZM64.0715 10.16C64.0715 11.4133 63.6714 12.42 62.8714 13.18C62.0714 13.9267 60.8848 14.3 59.3115 14.3C58.5115 14.3 57.7848 14.2067 57.1315 14.02C56.4781 13.8333 55.9182 13.5667 55.4515 13.22L55.1714 10.24C56.3981 11.2133 57.7314 11.7 59.1714 11.7C59.7447 11.7 60.1847 11.5933 60.4915 11.38C60.7982 11.1533 60.9515 10.8467 60.9515 10.46C60.9515 10.2733 60.9181 10.1067 60.8514 9.95998C60.7981 9.79998 60.6914 9.65998 60.5314 9.53998C60.3847 9.40665 60.1782 9.27998 59.9114 9.15998C59.6581 9.02665 59.3315 8.89331 58.9314 8.75998C57.8115 8.37331 56.9647 7.83998 56.3914 7.15998C55.8181 6.46665 55.5314 5.67998 55.5314 4.79998C55.5314 4.25331 55.6315 3.74665 55.8315 3.27998C56.0315 2.81331 56.3181 2.40665 56.6914 2.05998C57.0647 1.69998 57.5247 1.41998 58.0714 1.21998C58.6315 1.01998 59.2582 0.919983 59.9515 0.919983C60.7514 0.919983 61.3981 0.999983 61.8914 1.15998C62.3981 1.31998 62.7915 1.49331 63.0714 1.67998L62.8315 4.27998C62.5247 4.07998 62.1315 3.89998 61.6515 3.73998C61.1847 3.56665 60.6981 3.47998 60.1914 3.47998C59.6314 3.47998 59.2182 3.58665 58.9515 3.79998C58.6982 4.01331 58.5714 4.27331 58.5714 4.57998C58.5714 4.88665 58.7048 5.14665 58.9715 5.35998C59.2514 5.57331 59.7715 5.80665 60.5314 6.05998C61.0381 6.23331 61.5047 6.45331 61.9314 6.71998C62.3714 6.97331 62.7447 7.27331 63.0514 7.61998C63.3714 7.96665 63.6181 8.35331 63.7915 8.77998C63.9781 9.19331 64.0715 9.65331 64.0715 10.16ZM75.3705 3.71998V14H72.2905V3.69998H68.4305V1.23998H79.2105V3.71998H75.3705ZM94.3023 7.59998C94.3023 6.99998 94.1957 6.45998 93.9823 5.97998C93.7823 5.49998 93.5023 5.08665 93.1423 4.73998C92.7957 4.39331 92.3957 4.12665 91.9423 3.93998C91.5023 3.75331 91.0424 3.65998 90.5623 3.65998C90.0823 3.65998 89.6157 3.75331 89.1623 3.93998C88.7223 4.12665 88.329 4.39331 87.9823 4.73998C87.6357 5.08665 87.3558 5.49998 87.1423 5.97998C86.9424 6.45998 86.8423 6.99998 86.8423 7.59998C86.8423 8.19998 86.9424 8.74665 87.1423 9.23998C87.3558 9.71998 87.6357 10.1333 87.9823 10.48C88.329 10.8267 88.7223 11.0933 89.1623 11.28C89.6157 11.4667 90.0823 11.56 90.5623 11.56C91.0424 11.56 91.5023 11.4667 91.9423 11.28C92.3957 11.0933 92.7957 10.8267 93.1423 10.48C93.5023 10.1333 93.7823 9.71998 93.9823 9.23998C94.1957 8.74665 94.3023 8.19998 94.3023 7.59998ZM97.4423 7.59998C97.4423 8.62665 97.249 9.55331 96.8623 10.38C96.4757 11.2067 95.9623 11.9133 95.3223 12.5C94.6824 13.0733 93.949 13.52 93.1223 13.84C92.2957 14.1467 91.4423 14.3 90.5623 14.3C89.6824 14.3 88.829 14.1467 88.0023 13.84C87.1757 13.52 86.4423 13.0733 85.8023 12.5C85.1757 11.9133 84.6691 11.2067 84.2823 10.38C83.8958 9.55331 83.7023 8.62665 83.7023 7.59998C83.7023 6.57331 83.8958 5.65331 84.2823 4.83998C84.6691 4.01331 85.1757 3.31331 85.8023 2.73998C86.4423 2.16665 87.1757 1.72665 88.0023 1.41998C88.829 1.09998 89.6824 0.939983 90.5623 0.939983C91.4423 0.939983 92.2957 1.09998 93.1223 1.41998C93.949 1.72665 94.6824 2.16665 95.3223 2.73998C95.9623 3.31331 96.4757 4.01331 96.8623 4.83998C97.249 5.65331 97.4423 6.57331 97.4423 7.59998ZM108.739 5.09998C108.739 4.61998 108.572 4.26665 108.239 4.03998C107.906 3.79998 107.539 3.67998 107.139 3.67998H105.819V6.53998H107.139C107.539 6.53998 107.906 6.42665 108.239 6.19998C108.572 5.97331 108.739 5.60665 108.739 5.09998ZM110.359 14L106.919 8.97998H105.819V14H102.839V1.23998H107.599C108.146 1.23998 108.666 1.33331 109.159 1.51998C109.652 1.69331 110.086 1.94665 110.459 2.27998C110.846 2.59998 111.152 2.99998 111.379 3.47998C111.606 3.95998 111.719 4.49998 111.719 5.09998C111.719 5.85998 111.526 6.51998 111.139 7.07998C110.766 7.63998 110.306 8.04665 109.759 8.29998L113.819 14H110.359Z" fill="#4970F8"/>
<path d="M124.279 10.04C124.279 9.48 124.086 9.06667 123.699 8.8C123.313 8.52 122.879 8.38 122.399 8.38H120.919V11.68H122.399C122.639 11.68 122.873 11.6467 123.099 11.58C123.326 11.5133 123.526 11.4133 123.699 11.28C123.873 11.1467 124.013 10.98 124.119 10.78C124.226 10.5667 124.279 10.32 124.279 10.04ZM123.299 4.82C123.299 4.35333 123.153 4.02 122.859 3.82C122.579 3.62 122.259 3.52 121.899 3.52H120.919V6.1H121.899C122.259 6.1 122.579 6.00667 122.859 5.82C123.153 5.62 123.299 5.28667 123.299 4.82ZM127.279 10.04C127.279 10.6533 127.166 11.2067 126.939 11.7C126.713 12.1933 126.399 12.6133 125.999 12.96C125.599 13.2933 125.133 13.5533 124.599 13.74C124.079 13.9133 123.519 14 122.919 14H118.099V1.24H122.379C122.886 1.24 123.359 1.32 123.799 1.48C124.253 1.64 124.653 1.86667 124.999 2.16C125.346 2.44 125.619 2.79333 125.819 3.22C126.019 3.63333 126.119 4.1 126.119 4.62C126.119 4.80667 126.093 5.00667 126.039 5.22C125.999 5.43333 125.933 5.64 125.839 5.84C125.759 6.02667 125.653 6.2 125.519 6.36C125.386 6.52 125.233 6.64667 125.059 6.74C125.326 6.82 125.593 6.96667 125.859 7.18C126.126 7.39333 126.366 7.64667 126.579 7.94C126.793 8.23333 126.959 8.56 127.079 8.92C127.213 9.28 127.279 9.65333 127.279 10.04ZM142.798 7.6C142.798 7 142.691 6.46 142.478 5.98C142.278 5.5 141.998 5.08667 141.638 4.74C141.291 4.39333 140.891 4.12667 140.438 3.94C139.998 3.75333 139.538 3.66 139.058 3.66C138.578 3.66 138.111 3.75333 137.658 3.94C137.218 4.12667 136.824 4.39333 136.478 4.74C136.131 5.08667 135.851 5.5 135.638 5.98C135.438 6.46 135.338 7 135.338 7.6C135.338 8.2 135.438 8.74667 135.638 9.24C135.851 9.72 136.131 10.1333 136.478 10.48C136.824 10.8267 137.218 11.0933 137.658 11.28C138.111 11.4667 138.578 11.56 139.058 11.56C139.538 11.56 139.998 11.4667 140.438 11.28C140.891 11.0933 141.291 10.8267 141.638 10.48C141.998 10.1333 142.278 9.72 142.478 9.24C142.691 8.74667 142.798 8.2 142.798 7.6ZM145.938 7.6C145.938 8.62667 145.744 9.55333 145.358 10.38C144.971 11.2067 144.458 11.9133 143.818 12.5C143.178 13.0733 142.444 13.52 141.618 13.84C140.791 14.1467 139.938 14.3 139.058 14.3C138.178 14.3 137.324 14.1467 136.498 13.84C135.671 13.52 134.938 13.0733 134.298 12.5C133.671 11.9133 133.164 11.2067 132.778 10.38C132.391 9.55333 132.198 8.62667 132.198 7.6C132.198 6.57333 132.391 5.65333 132.778 4.84C133.164 4.01333 133.671 3.31333 134.298 2.74C134.938 2.16667 135.671 1.72667 136.498 1.42C137.324 1.1 138.178 0.940002 139.058 0.940002C139.938 0.940002 140.791 1.1 141.618 1.42C142.444 1.72667 143.178 2.16667 143.818 2.74C144.458 3.31333 144.971 4.01333 145.358 4.84C145.744 5.65333 145.938 6.57333 145.938 7.6ZM161.534 7.6C161.534 7 161.428 6.46 161.214 5.98C161.014 5.5 160.734 5.08667 160.374 4.74C160.028 4.39333 159.628 4.12667 159.174 3.94C158.734 3.75333 158.274 3.66 157.794 3.66C157.314 3.66 156.848 3.75333 156.394 3.94C155.954 4.12667 155.561 4.39333 155.214 4.74C154.868 5.08667 154.588 5.5 154.374 5.98C154.174 6.46 154.074 7 154.074 7.6C154.074 8.2 154.174 8.74667 154.374 9.24C154.588 9.72 154.868 10.1333 155.214 10.48C155.561 10.8267 155.954 11.0933 156.394 11.28C156.848 11.4667 157.314 11.56 157.794 11.56C158.274 11.56 158.734 11.4667 159.174 11.28C159.628 11.0933 160.028 10.8267 160.374 10.48C160.734 10.1333 161.014 9.72 161.214 9.24C161.428 8.74667 161.534 8.2 161.534 7.6ZM164.674 7.6C164.674 8.62667 164.481 9.55333 164.094 10.38C163.708 11.2067 163.194 11.9133 162.554 12.5C161.914 13.0733 161.181 13.52 160.354 13.84C159.528 14.1467 158.674 14.3 157.794 14.3C156.914 14.3 156.061 14.1467 155.234 13.84C154.408 13.52 153.674 13.0733 153.034 12.5C152.408 11.9133 151.901 11.2067 151.514 10.38C151.128 9.55333 150.934 8.62667 150.934 7.6C150.934 6.57333 151.128 5.65333 151.514 4.84C151.901 4.01333 152.408 3.31333 153.034 2.74C153.674 2.16667 154.408 1.72667 155.234 1.42C156.061 1.1 156.914 0.940002 157.794 0.940002C158.674 0.940002 159.528 1.1 160.354 1.42C161.181 1.72667 161.914 2.16667 162.554 2.74C163.194 3.31333 163.708 4.01333 164.094 4.84C164.481 5.65333 164.674 6.57333 164.674 7.6ZM177.011 14L173.171 8.74V14H170.071V1.24H173.171V6.72L177.091 1.24H180.471L176.011 7.58L180.611 14H177.011Z" fill="#383E54"/>
</svg>
